<svg width="14" height="44" viewBox="0 0 14 44" fill="none" xmlns="http://www.w3.org/2000/svg">
<g id="SVG">
<path id="Vector" d="M13.0728 17.6825C12.5519 18.0014 12.1205 18.4473 11.8188 18.9783C11.5172 19.5094 11.3552 20.1083 11.348 20.719C11.3501 21.4064 11.5537 22.078 11.9337 22.6508C12.3137 23.2235 12.8534 23.6722 13.4859 23.9413C13.2365 24.7459 12.8675 25.5084 12.3911 26.2031C11.7095 27.1843 10.9968 28.1654 9.91242 28.1654C8.82802 28.1654 8.54912 27.5354 7.29942 27.5354C6.08072 27.5354 5.64692 28.1861 4.65542 28.1861C3.66392 28.1861 2.97202 27.2772 2.17672 26.1618C1.12618 24.5992 0.548826 22.7667 0.513916 20.8842C0.513916 17.7858 2.52792 16.1437 4.51082 16.1437C5.56432 16.1437 6.44222 16.8356 7.10322 16.8356C7.73322 16.8356 8.71442 16.1023 9.91242 16.1023C10.5284 16.0864 11.1388 16.2222 11.6899 16.4978C12.241 16.7733 12.716 17.1802 13.0728 17.6825ZM9.34442 14.7907C9.87252 14.1695 10.1715 13.3858 10.1913 12.5707C10.1922 12.4632 10.1818 12.356 10.1603 12.2507C9.25317 12.3393 8.41432 12.7717 7.81582 13.4591C7.28262 14.0556 6.97242 14.8183 6.93792 15.6176C6.93832 15.7148 6.9487 15.8117 6.96892 15.9068C7.04043 15.9203 7.11304 15.9272 7.18582 15.9275C7.60389 15.8942 8.01083 15.7763 8.38191 15.5809C8.75299 15.3855 9.08046 15.1166 9.34442 14.7907Z" fill="black" fill-opacity="0.8"/>
</g>
</svg>
