<svg width="15" height="44" viewBox="0 0 15 44" fill="none" xmlns="http://www.w3.org/2000/svg">
<g id="SVG">
<path id="Vector" d="M12.1836 16.0283H11.1631C11.0537 15.2173 10.6574 14.4723 10.0459 13.9284C9.43444 13.3845 8.64835 13.0777 7.83011 13.0635C7.01187 13.0777 6.22577 13.3845 5.61432 13.9284C5.00286 14.4723 4.60651 15.2173 4.49711 16.0283H3.47711C2.9159 16.0287 2.37777 16.2517 1.98085 16.6485C1.58394 17.0452 1.36069 17.5833 1.36011 18.1445V25.86C1.36061 26.4212 1.58371 26.9592 1.98045 27.356C2.37719 27.7528 2.91516 27.9761 3.47631 27.9767H12.1833C12.7446 27.9762 13.2827 27.7531 13.6795 27.3562C14.0764 26.9594 14.2996 26.4213 14.3001 25.86V18.1445C14.2995 17.5834 14.0763 17.0454 13.6795 16.6487C13.2827 16.2519 12.7447 16.0288 12.1836 16.0283ZM7.83011 14.1631C8.35752 14.1746 8.86523 14.3657 9.26929 14.7048C9.67336 15.044 9.94958 15.5109 10.0523 16.0283H5.60791C5.71063 15.5109 5.98686 15.044 6.39092 14.7048C6.79499 14.3657 7.3027 14.1746 7.83011 14.1631ZM13.2001 25.86C13.1998 26.1296 13.0926 26.388 12.9021 26.5787C12.7115 26.7694 12.4531 26.8767 12.1835 26.8771H3.47661C3.20705 26.8767 2.94867 26.7693 2.75812 26.5787C2.56757 26.388 2.4604 26.1296 2.46011 25.86V18.1445C2.46043 17.875 2.56763 17.6166 2.75821 17.426C2.94879 17.2354 3.20719 17.1282 3.47671 17.1279H12.1837C12.4532 17.1283 12.7115 17.2355 12.9021 17.4261C13.0926 17.6167 13.1998 17.875 13.2001 18.1445V25.86Z" fill="black" fill-opacity="0.8"/>
</g>
</svg>
