<svg width="16" height="44" viewBox="0 0 16 44" fill="none" xmlns="http://www.w3.org/2000/svg">
<g id="SVG">
<path id="Vector" d="M14.9879 27.202L11.1179 23.332C11.8189 22.403 12.2399 21.251 12.2399 20C12.2399 16.94 9.75089 14.45 6.68989 14.45C3.62989 14.45 1.13989 16.94 1.13989 20C1.13989 23.061 3.62989 25.55 6.68989 25.55C7.94089 25.55 9.09289 25.129 10.0219 24.428L13.8919 28.298C14.0429 28.449 14.2419 28.526 14.4399 28.526C14.6379 28.526 14.8359 28.45 14.9879 28.298C15.2909 27.995 15.2909 27.505 14.9879 27.202ZM2.23989 20C2.23989 17.546 4.23689 15.55 6.68989 15.55C9.14389 15.55 11.1399 17.547 11.1399 20C11.1399 22.453 9.14389 24.45 6.68989 24.45C4.23589 24.45 2.23989 22.454 2.23989 20Z" fill="black" fill-opacity="0.8"/>
</g>
</svg>
